<svg xmlns="http://www.w3.org/2000/svg" width="22.5" height="18.362" viewBox="0 0 22.5 18.362">
  <path id="twitter" d="M23.25,5a9.14,9.14,0,0,1-2.65.73,4.68,4.68,0,0,0,2-2.55,9.37,9.37,0,0,1-2.9,1.14,4.62,4.62,0,0,0-7.87,4.21A13.09,13.09,0,0,1,2.32,3.71,4.55,4.55,0,0,0,1.69,6,4.62,4.62,0,0,0,3.75,9.87a4.73,4.73,0,0,1-2.09-.58v.05a4.62,4.62,0,0,0,3.7,4.53A4.75,4.75,0,0,1,3.27,14a4.61,4.61,0,0,0,4.31,3.2,9.24,9.24,0,0,1-5.73,2,10,10,0,0,1-1.1-.06,13.06,13.06,0,0,0,7.07,2.08A13,13,0,0,0,21,8V7.4A9.21,9.21,0,0,0,23.25,5Z" transform="translate(-0.75 -2.859)" fill="#7b85f9"/>
</svg>
